<?xml version="1.0" standalone="no"?>
<!DOCTYPE svg PUBLIC "-//W3C//DTD SVG 20010904//EN"
 "http://www.w3.org/TR/2001/REC-SVG-20010904/DTD/svg10.dtd">
<svg version="1.0" xmlns="http://www.w3.org/2000/svg"
 width="1000.000000pt" height="1000.000000pt" viewBox="0 0 1000.000000 1000.000000"
 preserveAspectRatio="xMidYMid meet">
<metadata>
Created by potrace 1.11, written by Peter Selinger 2001-2013
</metadata>
<g transform="translate(0.000000,1000.000000) scale(0.100000,-0.100000)"
fill="#000000" stroke="none">
<path d="M4835 9103 c-312 -39 -583 -170 -800 -388 -333 -332 -465 -806 -353
-1265 124 -510 546 -902 1072 -997 133 -24 352 -21 483 6 544 113 945 515
1060 1061 22 105 24 369 4 480 -48 270 -179 520 -375 716 -207 206 -463 336
-748 378 -95 14 -266 19 -343 9z"/>
<path d="M2385 7670 c-179 -19 -323 -63 -484 -145 -374 -192 -639 -555 -707
-970 -24 -148 -15 -393 20 -533 136 -543 586 -942 1138 -1012 670 -84 1297
350 1464 1012 35 140 44 376 20 528 -87 551 -518 996 -1066 1100 -118 23 -280
31 -385 20z"/>
<path d="M7327 7669 c-305 -33 -591 -172 -808 -393 -185 -187 -304 -410 -360
-679 -28 -131 -31 -358 -6 -493 75 -413 342 -771 713 -958 408 -206 904 -190
1287 40 545 328 786 977 586 1578 -128 386 -436 699 -822 835 -179 63 -406 90
-590 70z"/>
<path d="M4790 6025 c-349 -70 -639 -311 -771 -640 -93 -233 -93 -537 0 -770
134 -333 426 -573 779 -641 87 -17 284 -18 368 -3 405 72 725 365 836 766 19
67 22 104 22 263 0 159 -3 196 -22 263 -110 396 -422 687 -820 763 -91 17
-304 17 -392 -1z"/>
<path d="M2281 4884 c-312 -52 -620 -237 -816 -489 -146 -189 -232 -383 -270
-614 -25 -149 -17 -387 19 -527 129 -514 516 -887 1038 -1001 105 -22 397 -25
503 -4 491 96 881 438 1033 906 82 250 83 558 5 810 -149 477 -565 840 -1053
920 -117 18 -344 18 -459 -1z"/>
<path d="M7245 4885 c-186 -34 -372 -109 -531 -215 -102 -68 -286 -253 -353
-355 -155 -236 -225 -472 -224 -755 0 -230 38 -392 140 -595 360 -717 1268
-956 1940 -509 288 191 492 499 569 855 26 117 26 390 1 509 -118 555 -542
971 -1086 1064 -113 19 -354 20 -456 1z"/>
<path d="M4837 3559 c-491 -54 -913 -374 -1098 -833 -200 -497 -84 -1062 296
-1441 244 -244 543 -376 890 -392 376 -17 731 122 1001 391 196 196 327 446
375 716 20 111 18 375 -4 480 -102 484 -434 863 -890 1015 -178 59 -392 83
-570 64z"/>
</g>
</svg>
